<svg xmlns="http://www.w3.org/2000/svg" xmlns:xlink="http://www.w3.org/1999/xlink" width="500" zoomAndPan="magnify" viewBox="0 0 375 149.999998" height="200" preserveAspectRatio="xMidYMid meet" version="1.0"><defs><clipPath id="a09359fe2f"><path d="M 144.1875 36 L 206.4375 36 L 206.4375 116.140625 L 144.1875 116.140625 Z M 144.1875 36 " clip-rule="nonzero"/></clipPath></defs><g clip-path="url(#a09359fe2f)"><path fill="#a6a6a6" d="M 134.09375 44.664062 C 133.519531 45.582031 131.640625 50.332031 131.640625 50.332031 C 131.640625 50.332031 128.996094 49.03125 128.117188 49.257812 C 127.199219 49.488281 127.042969 52.785156 127.042969 53.703125 C 127.042969 54.621094 126.890625 55.195312 126.890625 55.195312 C 126.890625 55.195312 124.667969 54.546875 124.515625 55.695312 C 124.363281 56.84375 124.363281 56.84375 124.363281 56.84375 L 30.277344 57.648438 C 28.859375 57.648438 27.75 58.796875 27.789062 60.214844 C 27.980469 69.792969 28.785156 103.195312 31.042969 104.039062 C 33.6875 105.035156 99.769531 79.714844 114.902344 77.070312 C 130.03125 74.425781 135.96875 78.71875 133.976562 83.660156 C 131.984375 88.601562 113.597656 108.332031 113.90625 112.277344 C 114.25 116.222656 133.402344 118.214844 134.324219 116.070312 C 135.28125 113.921875 134.324219 112.621094 134.324219 112.621094 L 140.375 101.089844 C 140.375 101.089844 143.671875 101.742188 143.976562 100.285156 C 144.320312 98.792969 142.328125 96.1875 143.976562 93.695312 C 145.625 91.246094 149.914062 93.351562 151.714844 91.894531 L 167.191406 91.550781 C 167.191406 91.550781 166.847656 92.546875 169.183594 92.050781 C 169.183594 92.050781 168.378906 109.824219 170.984375 109.824219 C 173.625 109.824219 192.703125 107.027344 193.660156 105.535156 C 194.621094 104.039062 193.660156 87.300781 193.660156 87.300781 C 193.660156 87.300781 196.113281 88.601562 195.460938 83.8125 L 194.464844 72.972656 C 194.464844 72.972656 197.609375 73.625 198.066406 71.824219 C 198.566406 70.023438 198.566406 70.023438 198.566406 70.023438 C 198.566406 70.023438 199.0625 70.671875 200.058594 71.171875 C 201.054688 71.667969 206.152344 70.023438 206.152344 70.023438 C 206.152344 70.023438 205.996094 72.472656 208.601562 72.472656 C 211.246094 72.472656 261.660156 71.59375 262.65625 70.789062 C 263.652344 69.984375 264.226562 68.871094 264.226562 68.871094 C 264.226562 68.871094 266.257812 68.375 266.371094 67.839844 C 266.371094 67.839844 267.710938 69.027344 268.554688 68.949219 C 269.398438 68.871094 270.546875 68.527344 270.429688 63.703125 L 277.976562 63.546875 C 278.09375 64.734375 279.203125 65.691406 280.582031 65.691406 C 282 65.691406 283.148438 64.699219 283.1875 63.433594 L 344.25 62.128906 C 344.25 62.128906 345.746094 58.53125 344.25 57.6875 L 282.730469 57.570312 C 282.730469 57.570312 280.738281 41.597656 280.429688 38.800781 C 280.125 36.003906 276.140625 36.003906 272.539062 41.253906 C 268.9375 46.5 264.992188 52.9375 264.992188 52.9375 L 263.996094 52.9375 C 263.996094 52.9375 262.921875 50.867188 262.617188 50.867188 C 262.308594 50.867188 207.148438 50.753906 207.148438 50.753906 C 207.148438 50.753906 206.34375 50.90625 206.417969 51.902344 C 206.496094 52.898438 205.996094 53.28125 205.996094 53.28125 C 205.996094 53.28125 204.925781 52.785156 204.273438 52.476562 C 203.621094 52.132812 199.253906 51.671875 199.253906 51.671875 C 199.253906 51.671875 198.910156 52.898438 198.757812 53.816406 C 198.605469 54.738281 197.378906 53.972656 197.378906 53.972656 C 197.378906 53.972656 197.953125 45.734375 197.035156 43.78125 C 196.113281 41.789062 193.738281 39.910156 188.492188 39.683594 C 183.242188 39.453125 141.714844 35.890625 139.417969 36.925781 C 137.121094 37.957031 136.46875 39.453125 136.542969 41.328125 C 136.621094 43.207031 136.199219 44.625 136.199219 44.625 C 136.199219 44.625 134.667969 43.78125 134.09375 44.664062 Z M 274.683594 57.800781 C 272.195312 57.839844 270.585938 57.800781 270.585938 57.800781 C 270.585938 57.800781 269.359375 57.152344 270.277344 56.421875 L 276.714844 56.421875 C 276.714844 56.421875 277.328125 56.347656 277.367188 57.074219 C 277.441406 57.800781 277.175781 57.761719 274.683594 57.800781 Z M 268.746094 50.753906 L 273.035156 44.625 C 273.035156 44.625 275.027344 43.015625 275.792969 44.625 C 276.5625 46.195312 275.757812 48.453125 278.628906 48.609375 C 278.628906 48.609375 279.28125 52.59375 279.011719 53.050781 C 278.746094 53.472656 269.207031 53.703125 269.207031 53.703125 C 269.207031 53.703125 267.328125 52.820312 268.746094 50.753906 Z M 166.960938 87.910156 C 166.042969 88.640625 166.539062 89.789062 166.539062 89.789062 L 152.632812 90.132812 C 152.632812 90.132812 152.097656 89.367188 150.871094 88.488281 C 149.683594 87.605469 148.839844 83.890625 150.449219 82.742188 C 152.058594 81.589844 153.132812 81.476562 153.132812 81.476562 C 153.132812 81.476562 152.019531 87.683594 155.890625 89.445312 C 155.890625 89.445312 156.386719 89.214844 155.738281 87.683594 C 155.085938 86.148438 154.359375 82.855469 156.886719 81.476562 L 163.246094 81.476562 C 163.246094 81.476562 166.195312 81.132812 167.34375 83.238281 C 168.417969 85.308594 167.878906 87.222656 166.960938 87.910156 Z M 149.417969 49.757812 L 152.367188 45.160156 C 152.367188 45.160156 152.289062 43.511719 160.832031 43.511719 C 169.375 43.511719 190.023438 43.089844 190.023438 43.089844 C 190.023438 43.089844 194.464844 43.320312 195.269531 45.886719 C 196.074219 48.453125 194.273438 50.90625 192.398438 51.136719 C 190.519531 51.367188 152.671875 51.789062 152.671875 51.789062 C 152.671875 51.789062 147.84375 52.207031 149.417969 49.757812 Z M 149.417969 49.757812 " fill-opacity="1" fill-rule="nonzero"/></g></svg>