<svg xmlns="http://www.w3.org/2000/svg" xmlns:xlink="http://www.w3.org/1999/xlink" width="500" zoomAndPan="magnify" viewBox="0 0 375 149.999998" height="200" preserveAspectRatio="xMidYMid meet" version="1.0"><defs><clipPath id="5c3365bc93"><path d="M 205.554688 36 L 344 36 L 344 117 L 205.554688 117 Z M 205.554688 36 " clip-rule="nonzero"/></clipPath></defs><g clip-path="url(#5c3365bc93)"><path fill="#a6a6a6" d="M 132.882812 44.664062 C 132.308594 45.582031 130.429688 50.332031 130.429688 50.332031 C 130.429688 50.332031 127.789062 49.027344 126.90625 49.257812 C 125.988281 49.488281 125.835938 52.785156 125.835938 53.703125 C 125.835938 54.621094 125.679688 55.195312 125.679688 55.195312 C 125.679688 55.195312 123.460938 54.546875 123.304688 55.695312 C 123.152344 56.84375 123.152344 56.84375 123.152344 56.84375 L 29.066406 57.648438 C 27.648438 57.648438 26.539062 58.796875 26.578125 60.214844 C 26.769531 69.792969 27.574219 103.195312 29.832031 104.039062 C 32.476562 105.035156 98.558594 79.714844 113.691406 77.070312 C 128.820312 74.425781 134.761719 78.71875 132.769531 83.660156 C 130.777344 88.601562 112.386719 108.332031 112.695312 112.277344 C 113.039062 116.222656 132.191406 118.214844 133.113281 116.070312 C 134.070312 113.921875 133.113281 112.621094 133.113281 112.621094 L 139.164062 101.089844 C 139.164062 101.089844 142.460938 101.742188 142.765625 100.285156 C 143.109375 98.792969 141.117188 96.1875 142.765625 93.695312 C 144.414062 91.246094 148.703125 93.351562 150.503906 91.894531 L 165.980469 91.550781 C 165.980469 91.550781 165.636719 92.546875 167.972656 92.050781 C 167.972656 92.050781 167.167969 109.824219 169.773438 109.824219 C 172.417969 109.824219 191.496094 107.027344 192.453125 105.535156 C 193.410156 104.039062 192.453125 87.300781 192.453125 87.300781 C 192.453125 87.300781 194.902344 88.601562 194.253906 83.8125 L 193.257812 72.972656 C 193.257812 72.972656 196.398438 73.625 196.855469 71.824219 C 197.355469 70.023438 197.355469 70.023438 197.355469 70.023438 C 197.355469 70.023438 197.851562 70.671875 198.847656 71.171875 C 199.84375 71.667969 204.941406 70.023438 204.941406 70.023438 C 204.941406 70.023438 204.789062 72.472656 207.390625 72.472656 C 210.035156 72.472656 260.449219 71.59375 261.445312 70.789062 C 262.441406 69.984375 263.015625 68.871094 263.015625 68.871094 C 263.015625 68.871094 265.046875 68.375 265.160156 67.839844 C 265.160156 67.839844 266.5 69.027344 267.34375 68.949219 C 268.1875 68.871094 269.335938 68.527344 269.222656 63.703125 L 276.769531 63.546875 C 276.882812 64.734375 277.992188 65.691406 279.375 65.691406 C 280.789062 65.691406 281.941406 64.699219 281.976562 63.433594 L 343.042969 62.128906 C 343.042969 62.128906 344.535156 58.53125 343.042969 57.6875 L 281.519531 57.570312 C 281.519531 57.570312 279.527344 41.597656 279.21875 38.800781 C 278.914062 36.003906 274.929688 36.003906 271.328125 41.253906 C 267.726562 46.5 263.78125 52.9375 263.78125 52.9375 L 262.785156 52.9375 C 262.785156 52.9375 261.714844 50.867188 261.40625 50.867188 C 261.101562 50.867188 205.9375 50.753906 205.9375 50.753906 C 205.9375 50.753906 205.132812 50.90625 205.207031 51.902344 C 205.285156 52.898438 204.789062 53.28125 204.789062 53.28125 C 204.789062 53.28125 203.714844 52.785156 203.0625 52.476562 C 202.410156 52.132812 198.046875 51.671875 198.046875 51.671875 C 198.046875 51.671875 197.699219 52.898438 197.546875 53.816406 C 197.394531 54.738281 196.167969 53.972656 196.167969 53.972656 C 196.167969 53.972656 196.742188 45.734375 195.824219 43.78125 C 194.902344 41.789062 192.527344 39.910156 187.28125 39.683594 C 182.03125 39.453125 140.507812 35.890625 138.207031 36.925781 C 135.910156 37.957031 135.257812 39.453125 135.335938 41.328125 C 135.410156 43.207031 134.988281 44.625 134.988281 44.625 C 134.988281 44.625 133.457031 43.78125 132.882812 44.664062 Z M 273.472656 57.800781 C 270.984375 57.839844 269.375 57.800781 269.375 57.800781 C 269.375 57.800781 268.148438 57.152344 269.066406 56.421875 L 275.503906 56.421875 C 275.503906 56.421875 276.117188 56.347656 276.15625 57.074219 C 276.230469 57.800781 275.964844 57.761719 273.472656 57.800781 Z M 267.535156 50.753906 L 271.828125 44.625 C 271.828125 44.625 273.820312 43.015625 274.585938 44.625 C 275.351562 46.195312 274.546875 48.453125 277.417969 48.609375 C 277.417969 48.609375 278.070312 52.59375 277.800781 53.050781 C 277.535156 53.472656 267.996094 53.703125 267.996094 53.703125 C 267.996094 53.703125 266.117188 52.820312 267.535156 50.753906 Z M 165.75 87.910156 C 164.832031 88.640625 165.328125 89.789062 165.328125 89.789062 L 151.425781 90.132812 C 151.425781 90.132812 150.886719 89.367188 149.660156 88.488281 C 148.472656 87.605469 147.632812 83.890625 149.242188 82.742188 C 150.847656 81.589844 151.921875 81.476562 151.921875 81.476562 C 151.921875 81.476562 150.8125 87.683594 154.679688 89.445312 C 154.679688 89.445312 155.179688 89.214844 154.527344 87.683594 C 153.875 86.148438 153.148438 82.855469 155.675781 81.476562 L 162.035156 81.476562 C 162.035156 81.476562 164.984375 81.132812 166.132812 83.238281 C 167.207031 85.308594 166.671875 87.222656 165.75 87.910156 Z M 148.207031 49.757812 L 151.15625 45.160156 C 151.15625 45.160156 151.078125 43.511719 159.621094 43.511719 C 168.164062 43.511719 188.8125 43.089844 188.8125 43.089844 C 188.8125 43.089844 193.257812 43.320312 194.0625 45.886719 C 194.867188 48.453125 193.066406 50.90625 191.1875 51.136719 C 189.3125 51.367188 151.460938 51.789062 151.460938 51.789062 C 151.460938 51.789062 146.636719 52.207031 148.207031 49.757812 Z M 148.207031 49.757812 " fill-opacity="1" fill-rule="nonzero"/></g></svg>