<svg xmlns="http://www.w3.org/2000/svg" xmlns:xlink="http://www.w3.org/1999/xlink" width="500" zoomAndPan="magnify" viewBox="0 0 375 149.999998" height="200" preserveAspectRatio="xMidYMid meet" version="1.0"><defs><clipPath id="dccec33a04"><path d="M 28.402344 34 L 144.652344 34 L 144.652344 115 L 28.402344 115 Z M 28.402344 34 " clip-rule="nonzero"/></clipPath><clipPath id="46f05b9cac"><path d="M 144.1875 36 L 206.4375 36 L 206.4375 116.140625 L 144.1875 116.140625 Z M 144.1875 36 " clip-rule="nonzero"/></clipPath><clipPath id="6f35136409"><path d="M 205.554688 36 L 344 36 L 344 117 L 205.554688 117 Z M 205.554688 36 " clip-rule="nonzero"/></clipPath></defs><g clip-path="url(#dccec33a04)"><path fill="#a6a6a6" d="M 134.84375 42.605469 C 134.269531 43.527344 132.390625 48.277344 132.390625 48.277344 C 132.390625 48.277344 129.746094 46.972656 128.867188 47.203125 C 127.949219 47.433594 127.792969 50.726562 127.792969 51.648438 C 127.792969 52.566406 127.640625 53.140625 127.640625 53.140625 C 127.640625 53.140625 125.417969 52.488281 125.265625 53.640625 C 125.113281 54.789062 125.113281 54.789062 125.113281 54.789062 L 31.027344 55.59375 C 29.609375 55.59375 28.5 56.742188 28.539062 58.160156 C 28.730469 67.738281 29.535156 101.140625 31.792969 101.984375 C 34.4375 102.980469 100.519531 77.660156 115.652344 75.015625 C 130.78125 72.371094 136.71875 76.664062 134.726562 81.605469 C 132.734375 86.546875 114.347656 106.273438 114.65625 110.21875 C 115 114.167969 134.152344 116.15625 135.074219 114.011719 C 136.03125 111.867188 135.074219 110.566406 135.074219 110.566406 L 141.125 99.035156 C 141.125 99.035156 144.421875 99.6875 144.726562 98.230469 C 145.070312 96.734375 143.078125 94.132812 144.726562 91.640625 C 146.375 89.1875 150.664062 91.296875 152.464844 89.839844 L 167.941406 89.496094 C 167.941406 89.496094 167.597656 90.492188 169.933594 89.992188 C 169.933594 89.992188 169.128906 107.769531 171.734375 107.769531 C 174.375 107.769531 193.453125 104.972656 194.410156 103.476562 C 195.371094 101.984375 194.410156 85.242188 194.410156 85.242188 C 194.410156 85.242188 196.863281 86.546875 196.210938 81.757812 L 195.214844 70.917969 C 195.214844 70.917969 198.359375 71.566406 198.816406 69.765625 C 199.316406 67.964844 199.316406 67.964844 199.316406 67.964844 C 199.316406 67.964844 199.8125 68.617188 200.808594 69.117188 C 201.804688 69.613281 206.902344 67.964844 206.902344 67.964844 C 206.902344 67.964844 206.746094 70.417969 209.351562 70.417969 C 211.996094 70.417969 262.410156 69.535156 263.40625 68.734375 C 264.402344 67.929688 264.976562 66.816406 264.976562 66.816406 C 264.976562 66.816406 267.007812 66.320312 267.121094 65.78125 C 267.121094 65.78125 268.460938 66.96875 269.304688 66.894531 C 270.148438 66.816406 271.296875 66.472656 271.179688 61.644531 L 278.726562 61.492188 C 278.84375 62.679688 279.953125 63.636719 281.332031 63.636719 C 282.75 63.636719 283.898438 62.640625 283.9375 61.378906 L 345 60.074219 C 345 60.074219 346.496094 56.472656 345 55.632812 L 283.480469 55.515625 C 283.480469 55.515625 281.488281 39.542969 281.179688 36.746094 C 280.875 33.949219 276.890625 33.949219 273.289062 39.195312 C 269.6875 44.445312 265.742188 50.882812 265.742188 50.882812 L 264.746094 50.882812 C 264.746094 50.882812 263.671875 48.8125 263.367188 48.8125 C 263.058594 48.8125 207.898438 48.699219 207.898438 48.699219 C 207.898438 48.699219 207.09375 48.851562 207.167969 49.847656 C 207.246094 50.84375 206.746094 51.226562 206.746094 51.226562 C 206.746094 51.226562 205.675781 50.726562 205.023438 50.421875 C 204.371094 50.078125 200.003906 49.617188 200.003906 49.617188 C 200.003906 49.617188 199.660156 50.84375 199.507812 51.761719 C 199.355469 52.679688 198.128906 51.914062 198.128906 51.914062 C 198.128906 51.914062 198.703125 43.679688 197.785156 41.726562 C 196.863281 39.734375 194.488281 37.855469 189.242188 37.625 C 183.992188 37.398438 142.464844 33.832031 140.167969 34.867188 C 137.871094 35.902344 137.21875 37.398438 137.292969 39.273438 C 137.371094 41.152344 136.949219 42.566406 136.949219 42.566406 C 136.949219 42.566406 135.417969 41.726562 134.84375 42.605469 Z M 275.433594 55.746094 C 272.945312 55.785156 271.335938 55.746094 271.335938 55.746094 C 271.335938 55.746094 270.109375 55.09375 271.027344 54.367188 L 277.464844 54.367188 C 277.464844 54.367188 278.078125 54.289062 278.117188 55.019531 C 278.191406 55.746094 277.925781 55.707031 275.433594 55.746094 Z M 269.496094 48.699219 L 273.785156 42.566406 C 273.785156 42.566406 275.777344 40.960938 276.542969 42.566406 C 277.3125 44.140625 276.507812 46.398438 279.378906 46.550781 C 279.378906 46.550781 280.03125 50.535156 279.761719 50.996094 C 279.496094 51.417969 269.957031 51.648438 269.957031 51.648438 C 269.957031 51.648438 268.078125 50.765625 269.496094 48.699219 Z M 167.710938 85.855469 C 166.792969 86.585938 167.289062 87.734375 167.289062 87.734375 L 153.382812 88.078125 C 153.382812 88.078125 152.847656 87.3125 151.621094 86.429688 C 150.433594 85.550781 149.589844 81.832031 151.199219 80.683594 C 152.808594 79.535156 153.882812 79.421875 153.882812 79.421875 C 153.882812 79.421875 152.769531 85.625 156.640625 87.386719 C 156.640625 87.386719 157.136719 87.160156 156.488281 85.625 C 155.835938 84.09375 155.109375 80.800781 157.636719 79.421875 L 163.996094 79.421875 C 163.996094 79.421875 166.945312 79.074219 168.09375 81.183594 C 169.167969 83.25 168.628906 85.167969 167.710938 85.855469 Z M 150.167969 47.703125 L 153.117188 43.105469 C 153.117188 43.105469 153.039062 41.457031 161.582031 41.457031 C 170.125 41.457031 190.773438 41.035156 190.773438 41.035156 C 190.773438 41.035156 195.214844 41.265625 196.019531 43.832031 C 196.824219 46.398438 195.023438 48.851562 193.148438 49.082031 C 191.269531 49.308594 153.421875 49.730469 153.421875 49.730469 C 153.421875 49.730469 148.59375 50.152344 150.167969 47.703125 Z M 150.167969 47.703125 " fill-opacity="1" fill-rule="nonzero"/></g><g clip-path="url(#46f05b9cac)"><path fill="#a6a6a6" d="M 134.09375 44.664062 C 133.519531 45.582031 131.640625 50.332031 131.640625 50.332031 C 131.640625 50.332031 128.996094 49.027344 128.117188 49.257812 C 127.199219 49.488281 127.042969 52.785156 127.042969 53.703125 C 127.042969 54.621094 126.890625 55.195312 126.890625 55.195312 C 126.890625 55.195312 124.667969 54.546875 124.515625 55.695312 C 124.363281 56.84375 124.363281 56.84375 124.363281 56.84375 L 30.277344 57.648438 C 28.859375 57.648438 27.75 58.796875 27.789062 60.214844 C 27.980469 69.792969 28.785156 103.195312 31.042969 104.039062 C 33.6875 105.035156 99.769531 79.714844 114.902344 77.070312 C 130.03125 74.425781 135.96875 78.71875 133.976562 83.660156 C 131.984375 88.601562 113.597656 108.332031 113.90625 112.277344 C 114.25 116.222656 133.402344 118.214844 134.324219 116.070312 C 135.28125 113.921875 134.324219 112.621094 134.324219 112.621094 L 140.375 101.089844 C 140.375 101.089844 143.671875 101.742188 143.976562 100.285156 C 144.320312 98.792969 142.328125 96.1875 143.976562 93.695312 C 145.625 91.246094 149.914062 93.351562 151.714844 91.894531 L 167.191406 91.550781 C 167.191406 91.550781 166.847656 92.546875 169.183594 92.050781 C 169.183594 92.050781 168.378906 109.824219 170.984375 109.824219 C 173.625 109.824219 192.703125 107.027344 193.660156 105.535156 C 194.621094 104.039062 193.660156 87.300781 193.660156 87.300781 C 193.660156 87.300781 196.113281 88.601562 195.460938 83.8125 L 194.464844 72.972656 C 194.464844 72.972656 197.609375 73.625 198.066406 71.824219 C 198.566406 70.023438 198.566406 70.023438 198.566406 70.023438 C 198.566406 70.023438 199.0625 70.671875 200.058594 71.171875 C 201.054688 71.667969 206.152344 70.023438 206.152344 70.023438 C 206.152344 70.023438 205.996094 72.472656 208.601562 72.472656 C 211.246094 72.472656 261.660156 71.59375 262.65625 70.789062 C 263.652344 69.984375 264.226562 68.871094 264.226562 68.871094 C 264.226562 68.871094 266.257812 68.375 266.371094 67.839844 C 266.371094 67.839844 267.710938 69.027344 268.554688 68.949219 C 269.398438 68.871094 270.546875 68.527344 270.429688 63.703125 L 277.976562 63.546875 C 278.09375 64.734375 279.203125 65.691406 280.582031 65.691406 C 282 65.691406 283.148438 64.699219 283.1875 63.433594 L 344.25 62.128906 C 344.25 62.128906 345.746094 58.53125 344.25 57.6875 L 282.730469 57.570312 C 282.730469 57.570312 280.738281 41.597656 280.429688 38.800781 C 280.125 36.003906 276.140625 36.003906 272.539062 41.253906 C 268.9375 46.5 264.992188 52.9375 264.992188 52.9375 L 263.996094 52.9375 C 263.996094 52.9375 262.921875 50.867188 262.617188 50.867188 C 262.308594 50.867188 207.148438 50.753906 207.148438 50.753906 C 207.148438 50.753906 206.34375 50.90625 206.417969 51.902344 C 206.496094 52.898438 205.996094 53.28125 205.996094 53.28125 C 205.996094 53.28125 204.925781 52.785156 204.273438 52.476562 C 203.621094 52.132812 199.253906 51.671875 199.253906 51.671875 C 199.253906 51.671875 198.910156 52.898438 198.757812 53.816406 C 198.605469 54.738281 197.378906 53.972656 197.378906 53.972656 C 197.378906 53.972656 197.953125 45.734375 197.035156 43.78125 C 196.113281 41.789062 193.738281 39.910156 188.492188 39.683594 C 183.242188 39.453125 141.714844 35.890625 139.417969 36.925781 C 137.121094 37.957031 136.46875 39.453125 136.542969 41.328125 C 136.621094 43.207031 136.199219 44.625 136.199219 44.625 C 136.199219 44.625 134.667969 43.78125 134.09375 44.664062 Z M 274.683594 57.800781 C 272.195312 57.839844 270.585938 57.800781 270.585938 57.800781 C 270.585938 57.800781 269.359375 57.152344 270.277344 56.421875 L 276.714844 56.421875 C 276.714844 56.421875 277.328125 56.347656 277.367188 57.074219 C 277.441406 57.800781 277.175781 57.761719 274.683594 57.800781 Z M 268.746094 50.753906 L 273.035156 44.625 C 273.035156 44.625 275.027344 43.015625 275.792969 44.625 C 276.5625 46.195312 275.757812 48.453125 278.628906 48.609375 C 278.628906 48.609375 279.28125 52.59375 279.011719 53.050781 C 278.746094 53.472656 269.207031 53.703125 269.207031 53.703125 C 269.207031 53.703125 267.328125 52.820312 268.746094 50.753906 Z M 166.960938 87.910156 C 166.042969 88.640625 166.539062 89.789062 166.539062 89.789062 L 152.632812 90.132812 C 152.632812 90.132812 152.097656 89.367188 150.871094 88.488281 C 149.683594 87.605469 148.839844 83.890625 150.449219 82.742188 C 152.058594 81.589844 153.132812 81.476562 153.132812 81.476562 C 153.132812 81.476562 152.019531 87.683594 155.890625 89.445312 C 155.890625 89.445312 156.386719 89.214844 155.738281 87.683594 C 155.085938 86.148438 154.359375 82.855469 156.886719 81.476562 L 163.246094 81.476562 C 163.246094 81.476562 166.195312 81.132812 167.34375 83.238281 C 168.417969 85.308594 167.878906 87.222656 166.960938 87.910156 Z M 149.417969 49.757812 L 152.367188 45.160156 C 152.367188 45.160156 152.289062 43.511719 160.832031 43.511719 C 169.375 43.511719 190.023438 43.089844 190.023438 43.089844 C 190.023438 43.089844 194.464844 43.320312 195.269531 45.886719 C 196.074219 48.453125 194.273438 50.90625 192.398438 51.136719 C 190.519531 51.367188 152.671875 51.789062 152.671875 51.789062 C 152.671875 51.789062 147.84375 52.207031 149.417969 49.757812 Z M 149.417969 49.757812 " fill-opacity="1" fill-rule="nonzero"/></g><g clip-path="url(#6f35136409)"><path fill="#a6a6a6" d="M 132.882812 44.664062 C 132.308594 45.582031 130.429688 50.332031 130.429688 50.332031 C 130.429688 50.332031 127.789062 49.027344 126.90625 49.257812 C 125.988281 49.488281 125.835938 52.785156 125.835938 53.703125 C 125.835938 54.621094 125.679688 55.195312 125.679688 55.195312 C 125.679688 55.195312 123.460938 54.546875 123.304688 55.695312 C 123.152344 56.84375 123.152344 56.84375 123.152344 56.84375 L 29.066406 57.648438 C 27.648438 57.648438 26.539062 58.796875 26.578125 60.214844 C 26.769531 69.792969 27.574219 103.195312 29.832031 104.039062 C 32.476562 105.035156 98.558594 79.714844 113.691406 77.070312 C 128.820312 74.425781 134.761719 78.71875 132.769531 83.660156 C 130.777344 88.601562 112.386719 108.332031 112.695312 112.277344 C 113.039062 116.222656 132.191406 118.214844 133.113281 116.070312 C 134.070312 113.921875 133.113281 112.621094 133.113281 112.621094 L 139.164062 101.089844 C 139.164062 101.089844 142.460938 101.742188 142.765625 100.285156 C 143.109375 98.792969 141.117188 96.1875 142.765625 93.695312 C 144.414062 91.246094 148.703125 93.351562 150.503906 91.894531 L 165.980469 91.550781 C 165.980469 91.550781 165.636719 92.546875 167.972656 92.050781 C 167.972656 92.050781 167.167969 109.824219 169.773438 109.824219 C 172.417969 109.824219 191.496094 107.027344 192.453125 105.535156 C 193.410156 104.039062 192.453125 87.300781 192.453125 87.300781 C 192.453125 87.300781 194.902344 88.601562 194.253906 83.8125 L 193.257812 72.972656 C 193.257812 72.972656 196.398438 73.625 196.855469 71.824219 C 197.355469 70.023438 197.355469 70.023438 197.355469 70.023438 C 197.355469 70.023438 197.851562 70.671875 198.847656 71.171875 C 199.84375 71.667969 204.941406 70.023438 204.941406 70.023438 C 204.941406 70.023438 204.789062 72.472656 207.390625 72.472656 C 210.035156 72.472656 260.449219 71.59375 261.445312 70.789062 C 262.441406 69.984375 263.015625 68.871094 263.015625 68.871094 C 263.015625 68.871094 265.046875 68.375 265.160156 67.839844 C 265.160156 67.839844 266.5 69.027344 267.34375 68.949219 C 268.1875 68.871094 269.335938 68.527344 269.222656 63.703125 L 276.769531 63.546875 C 276.882812 64.734375 277.992188 65.691406 279.375 65.691406 C 280.789062 65.691406 281.941406 64.699219 281.976562 63.433594 L 343.042969 62.128906 C 343.042969 62.128906 344.535156 58.53125 343.042969 57.6875 L 281.519531 57.570312 C 281.519531 57.570312 279.527344 41.597656 279.21875 38.800781 C 278.914062 36.003906 274.929688 36.003906 271.328125 41.253906 C 267.726562 46.5 263.78125 52.9375 263.78125 52.9375 L 262.785156 52.9375 C 262.785156 52.9375 261.714844 50.867188 261.40625 50.867188 C 261.101562 50.867188 205.9375 50.753906 205.9375 50.753906 C 205.9375 50.753906 205.132812 50.90625 205.207031 51.902344 C 205.285156 52.898438 204.789062 53.28125 204.789062 53.28125 C 204.789062 53.28125 203.714844 52.785156 203.0625 52.476562 C 202.410156 52.132812 198.046875 51.671875 198.046875 51.671875 C 198.046875 51.671875 197.699219 52.898438 197.546875 53.816406 C 197.394531 54.738281 196.167969 53.972656 196.167969 53.972656 C 196.167969 53.972656 196.742188 45.734375 195.824219 43.78125 C 194.902344 41.789062 192.527344 39.910156 187.28125 39.683594 C 182.03125 39.453125 140.507812 35.890625 138.207031 36.925781 C 135.910156 37.957031 135.257812 39.453125 135.335938 41.328125 C 135.410156 43.207031 134.988281 44.625 134.988281 44.625 C 134.988281 44.625 133.457031 43.78125 132.882812 44.664062 Z M 273.472656 57.800781 C 270.984375 57.839844 269.375 57.800781 269.375 57.800781 C 269.375 57.800781 268.148438 57.152344 269.066406 56.421875 L 275.503906 56.421875 C 275.503906 56.421875 276.117188 56.347656 276.15625 57.074219 C 276.230469 57.800781 275.964844 57.761719 273.472656 57.800781 Z M 267.535156 50.753906 L 271.828125 44.625 C 271.828125 44.625 273.820312 43.015625 274.585938 44.625 C 275.351562 46.195312 274.546875 48.453125 277.417969 48.609375 C 277.417969 48.609375 278.070312 52.59375 277.800781 53.050781 C 277.535156 53.472656 267.996094 53.703125 267.996094 53.703125 C 267.996094 53.703125 266.117188 52.820312 267.535156 50.753906 Z M 165.75 87.910156 C 164.832031 88.640625 165.328125 89.789062 165.328125 89.789062 L 151.425781 90.132812 C 151.425781 90.132812 150.886719 89.367188 149.660156 88.488281 C 148.472656 87.605469 147.632812 83.890625 149.242188 82.742188 C 150.847656 81.589844 151.921875 81.476562 151.921875 81.476562 C 151.921875 81.476562 150.8125 87.683594 154.679688 89.445312 C 154.679688 89.445312 155.179688 89.214844 154.527344 87.683594 C 153.875 86.148438 153.148438 82.855469 155.675781 81.476562 L 162.035156 81.476562 C 162.035156 81.476562 164.984375 81.132812 166.132812 83.238281 C 167.207031 85.308594 166.671875 87.222656 165.75 87.910156 Z M 148.207031 49.757812 L 151.15625 45.160156 C 151.15625 45.160156 151.078125 43.511719 159.621094 43.511719 C 168.164062 43.511719 188.8125 43.089844 188.8125 43.089844 C 188.8125 43.089844 193.257812 43.320312 194.0625 45.886719 C 194.867188 48.453125 193.066406 50.90625 191.1875 51.136719 C 189.3125 51.367188 151.460938 51.789062 151.460938 51.789062 C 151.460938 51.789062 146.636719 52.207031 148.207031 49.757812 Z M 148.207031 49.757812 " fill-opacity="1" fill-rule="nonzero"/></g></svg>