<svg xmlns="http://www.w3.org/2000/svg" xmlns:xlink="http://www.w3.org/1999/xlink" width="500" zoomAndPan="magnify" viewBox="0 0 375 149.999998" height="200" preserveAspectRatio="xMidYMid meet" version="1.0"><defs><clipPath id="cb159b3bdf"><path d="M 28.402344 34 L 144.652344 34 L 144.652344 115 L 28.402344 115 Z M 28.402344 34 " clip-rule="nonzero"/></clipPath></defs><g clip-path="url(#cb159b3bdf)"><path d="M 134.84375 42.605469 C 134.269531 43.527344 132.390625 48.277344 132.390625 48.277344 C 132.390625 48.277344 129.746094 46.972656 128.867188 47.203125 C 127.949219 47.433594 127.792969 50.726562 127.792969 51.648438 C 127.792969 52.566406 127.640625 53.140625 127.640625 53.140625 C 127.640625 53.140625 125.417969 52.488281 125.265625 53.640625 C 125.113281 54.789062 125.113281 54.789062 125.113281 54.789062 L 31.027344 55.59375 C 29.609375 55.59375 28.5 56.742188 28.539062 58.160156 C 28.730469 67.738281 29.535156 101.140625 31.792969 101.984375 C 34.4375 102.980469 100.519531 77.660156 115.652344 75.015625 C 130.78125 72.371094 136.71875 76.664062 134.726562 81.605469 C 132.734375 86.546875 114.347656 106.273438 114.65625 110.21875 C 115 114.167969 134.152344 116.15625 135.074219 114.011719 C 136.03125 111.867188 135.074219 110.566406 135.074219 110.566406 L 141.125 99.035156 C 141.125 99.035156 144.421875 99.6875 144.726562 98.230469 C 145.070312 96.734375 143.078125 94.132812 144.726562 91.640625 C 146.375 89.1875 150.664062 91.296875 152.464844 89.839844 L 167.941406 89.496094 C 167.941406 89.496094 167.597656 90.492188 169.933594 89.992188 C 169.933594 89.992188 169.128906 107.769531 171.734375 107.769531 C 174.375 107.769531 193.453125 104.972656 194.410156 103.476562 C 195.371094 101.984375 194.410156 85.242188 194.410156 85.242188 C 194.410156 85.242188 196.863281 86.546875 196.210938 81.757812 L 195.214844 70.917969 C 195.214844 70.917969 198.359375 71.566406 198.816406 69.765625 C 199.316406 67.964844 199.316406 67.964844 199.316406 67.964844 C 199.316406 67.964844 199.8125 68.617188 200.808594 69.117188 C 201.804688 69.613281 206.902344 67.964844 206.902344 67.964844 C 206.902344 67.964844 206.746094 70.417969 209.351562 70.417969 C 211.996094 70.417969 262.410156 69.535156 263.40625 68.734375 C 264.402344 67.929688 264.976562 66.816406 264.976562 66.816406 C 264.976562 66.816406 267.007812 66.320312 267.121094 65.78125 C 267.121094 65.78125 268.460938 66.96875 269.304688 66.894531 C 270.148438 66.816406 271.296875 66.472656 271.179688 61.644531 L 278.726562 61.492188 C 278.84375 62.679688 279.953125 63.636719 281.332031 63.636719 C 282.75 63.636719 283.898438 62.640625 283.9375 61.378906 L 345 60.074219 C 345 60.074219 346.496094 56.472656 345 55.632812 L 283.480469 55.515625 C 283.480469 55.515625 281.488281 39.542969 281.179688 36.746094 C 280.875 33.949219 276.890625 33.949219 273.289062 39.195312 C 269.6875 44.445312 265.742188 50.882812 265.742188 50.882812 L 264.746094 50.882812 C 264.746094 50.882812 263.671875 48.8125 263.367188 48.8125 C 263.058594 48.8125 207.898438 48.699219 207.898438 48.699219 C 207.898438 48.699219 207.09375 48.851562 207.167969 49.847656 C 207.246094 50.84375 206.746094 51.226562 206.746094 51.226562 C 206.746094 51.226562 205.675781 50.726562 205.023438 50.421875 C 204.371094 50.078125 200.003906 49.617188 200.003906 49.617188 C 200.003906 49.617188 199.660156 50.84375 199.507812 51.761719 C 199.355469 52.679688 198.128906 51.914062 198.128906 51.914062 C 198.128906 51.914062 198.703125 43.679688 197.785156 41.726562 C 196.863281 39.734375 194.488281 37.855469 189.242188 37.625 C 183.992188 37.398438 142.464844 33.832031 140.167969 34.867188 C 137.871094 35.902344 137.21875 37.398438 137.292969 39.273438 C 137.371094 41.152344 136.949219 42.566406 136.949219 42.566406 C 136.949219 42.566406 135.417969 41.726562 134.84375 42.605469 Z M 275.433594 55.746094 C 272.945312 55.785156 271.335938 55.746094 271.335938 55.746094 C 271.335938 55.746094 270.109375 55.09375 271.027344 54.367188 L 277.464844 54.367188 C 277.464844 54.367188 278.078125 54.289062 278.117188 55.019531 C 278.191406 55.746094 277.925781 55.707031 275.433594 55.746094 Z M 269.496094 48.699219 L 273.785156 42.566406 C 273.785156 42.566406 275.777344 40.960938 276.542969 42.566406 C 277.3125 44.140625 276.507812 46.398438 279.378906 46.550781 C 279.378906 46.550781 280.03125 50.535156 279.761719 50.996094 C 279.496094 51.417969 269.957031 51.648438 269.957031 51.648438 C 269.957031 51.648438 268.078125 50.765625 269.496094 48.699219 Z M 167.710938 85.855469 C 166.792969 86.585938 167.289062 87.734375 167.289062 87.734375 L 153.382812 88.078125 C 153.382812 88.078125 152.847656 87.3125 151.621094 86.429688 C 150.433594 85.550781 149.589844 81.832031 151.199219 80.683594 C 152.808594 79.535156 153.882812 79.421875 153.882812 79.421875 C 153.882812 79.421875 152.769531 85.625 156.640625 87.386719 C 156.640625 87.386719 157.136719 87.160156 156.488281 85.625 C 155.835938 84.09375 155.109375 80.800781 157.636719 79.421875 L 163.996094 79.421875 C 163.996094 79.421875 166.945312 79.074219 168.09375 81.183594 C 169.167969 83.25 168.628906 85.167969 167.710938 85.855469 Z M 150.167969 47.703125 L 153.117188 43.105469 C 153.117188 43.105469 153.039062 41.457031 161.582031 41.457031 C 170.125 41.457031 190.773438 41.035156 190.773438 41.035156 C 190.773438 41.035156 195.214844 41.265625 196.019531 43.832031 C 196.824219 46.398438 195.023438 48.851562 193.148438 49.082031 C 191.269531 49.308594 153.421875 49.730469 153.421875 49.730469 C 153.421875 49.730469 148.59375 50.152344 150.167969 47.703125 Z M 150.167969 47.703125 " fill-opacity="1" fill-rule="nonzero"/></g></svg>